<svg xmlns="http://www.w3.org/2000/svg" viewBox="460 -1545 120 120">
  <defs>
    <style>
      .cls-1, .cls-2 {
        fill: #fff;
      }

      .cls-1 {
        opacity: 0.5;
      }
    </style>
  </defs>
  <g id="Ideas" transform="translate(460 -1545)">
    <path id="Path_18" data-name="Path 18" class="cls-1" d="M159.339,132.891c-18.016-10.414-18.016-27.464,0-37.881-18.016,10.411-32.754,1.9-32.754-18.94,0,20.837-14.741,29.372-32.754,18.94,18,10.417,18,27.467,0,37.881,18-10.414,32.754-1.893,32.754,18.943C126.584,131.013,141.322,122.478,159.339,132.891Z" transform="translate(-66.588 -53.948)"/>
    <path id="Path_19" data-name="Path 19" class="cls-2" d="M251.258,35.06A44.43,44.43,0,0,0,218.12,15.846V0a60.272,60.272,0,0,1,46.819,27.153Z" transform="translate(-154.79)"/>
    <path id="Path_20" data-name="Path 20" class="cls-2" d="M343.76,159.46a43.94,43.94,0,0,0,0-38.338l13.681-7.913a59.581,59.581,0,0,1,0,54.161Z" transform="translate(-243.951 -80.287)"/>
    <path id="Path_21" data-name="Path 21" class="cls-2" d="M218.12,311.314A44.409,44.409,0,0,0,251.258,292.1l13.678,7.907a60.264,60.264,0,0,1-46.816,27.147Z" transform="translate(-154.79 -207.154)"/>
    <path id="Path_22" data-name="Path 22" class="cls-2" d="M80.753,327.154A60.258,60.258,0,0,1,33.94,300.007L47.6,292.1a44.409,44.409,0,0,0,33.138,19.214Z" transform="translate(-24.087 -207.154)"/>
    <path id="Path_23" data-name="Path 23" class="cls-2" d="M33.92,27.153A60.277,60.277,0,0,1,80.739,0V15.846A44.409,44.409,0,0,0,47.59,35.06Z" transform="translate(-24.073)"/>
    <path id="Path_24" data-name="Path 24" class="cls-2" d="M6.513,167.378a59.587,59.587,0,0,1,0-54.158l13.681,7.91a43.946,43.946,0,0,0,0,38.34Z" transform="translate(-0.005 -80.294)"/>
  </g>
</svg>
